<svg width="32" height="32" viewBox="0 0 32 32" fill="none" xmlns="http://www.w3.org/2000/svg">
<path d="M12.5624 6.50438L11.702 6.76358C10.9359 6.99462 10.2517 7.43969 9.73005 8.04643C9.20835 8.65316 8.87083 9.3963 8.75722 10.1884C8.40082 12.67 9.19762 15.5716 11.1188 18.8992C13.0352 22.2184 15.1448 24.3568 17.4668 25.2928C18.2129 25.5935 19.0296 25.6736 19.8199 25.5236C20.6102 25.3736 21.3408 24.9999 21.9248 24.4468L22.5752 23.83C22.9976 23.4303 23.2604 22.8908 23.3149 22.3119C23.3694 21.7329 23.2119 21.1539 22.8716 20.6824L21.2444 18.4264C21.0244 18.1218 20.7146 17.8937 20.3585 17.7741C20.0023 17.6544 19.6177 17.6492 19.2584 17.7592L16.7972 18.5116L16.7336 18.5236C16.4624 18.5632 15.836 17.9764 15.056 16.6252C14.24 15.2116 14.072 14.3848 14.2964 14.1712L15.548 13.0036C16.0057 12.5769 16.3184 12.0177 16.4421 11.4044C16.5659 10.791 16.4945 10.1543 16.238 9.58358L15.4436 7.81838C15.2047 7.28719 14.7809 6.86099 14.251 6.61924C13.7211 6.37748 13.1214 6.33666 12.5636 6.50438H12.5624ZM14.3504 8.31038L15.1424 10.0756C15.2967 10.4179 15.3398 10.7999 15.2657 11.1679C15.1917 11.536 15.0042 11.8716 14.7296 12.1276L13.4744 13.2964C12.6716 14.0572 12.938 15.3556 14.018 17.2252C15.0332 18.9844 15.9596 19.8532 16.9556 19.702L17.1044 19.6708L19.61 18.9064C19.7298 18.8696 19.8581 18.8712 19.9769 18.911C20.0957 18.9508 20.199 19.0268 20.2724 19.1284L21.8996 21.3844C22.07 21.6201 22.149 21.9097 22.1218 22.1993C22.0947 22.4889 21.9633 22.7588 21.752 22.9588L21.1004 23.5756C20.6832 23.9704 20.1615 24.2372 19.5971 24.3442C19.0328 24.4512 18.4496 24.3939 17.9168 24.1792C15.8792 23.3584 13.9532 21.406 12.1592 18.2992C10.3604 15.1852 9.63202 12.5368 9.94522 10.3588C10.0263 9.7929 10.2674 9.26196 10.64 8.82848C11.0127 8.39499 11.5015 8.07702 12.0488 7.91198L12.9092 7.65278C13.1882 7.56896 13.4881 7.58946 13.753 7.71045C14.018 7.83145 14.2299 8.04468 14.3492 8.31038H14.3504Z" fill="black"/>
</svg>
