<svg viewBox="0 0 32 32" xmlns="http://www.w3.org/2000/svg">
<path d="M23.1561 7.8121C22.9836 7.66912 22.7756 7.57548 22.5542 7.54111C22.3328 7.50675 22.1062 7.53294 21.8985 7.6169L7.5649 13.4033C7.33327 13.4985 7.13608 13.6619 6.99949 13.8717C6.8629 14.0816 6.79337 14.3281 6.80014 14.5784C6.80691 14.8288 6.88966 15.0711 7.03739 15.2733C7.18513 15.4755 7.39087 15.628 7.6273 15.7105L10.7201 16.7841L12.3961 22.3249C12.3993 22.3361 12.4097 22.3433 12.4145 22.3537C12.4318 22.3979 12.457 22.4386 12.4889 22.4737C12.5374 22.5279 12.6 22.5675 12.6697 22.5881C12.6777 22.5913 12.6833 22.5985 12.6913 22.6001H12.6961L12.6985 22.6009C12.7604 22.6142 12.8247 22.6109 12.8849 22.5913C12.8913 22.5897 12.8977 22.5897 12.9049 22.5873C12.9627 22.567 13.015 22.5336 13.0577 22.4897C13.0625 22.4841 13.0705 22.4833 13.0753 22.4785L15.4857 19.8177L19.0033 22.5417C19.2169 22.7089 19.4801 22.7993 19.7513 22.7993C20.3385 22.7993 20.8449 22.3881 20.9657 21.8145L23.5753 9.0001C23.6196 8.78256 23.6039 8.55708 23.5301 8.34772C23.4563 8.13835 23.327 7.95376 23.1561 7.8121ZM13.2705 17.8361L12.7049 20.5857L11.5249 16.6833L17.3769 13.6353L13.3793 17.6337C13.3239 17.689 13.2861 17.7594 13.2705 17.8361ZM20.1817 21.6537C20.1667 21.7262 20.1333 21.7937 20.0846 21.8496C20.036 21.9055 19.9739 21.948 19.9041 21.9729C19.836 21.9991 19.7623 22.0071 19.6902 21.9962C19.6181 21.9852 19.5501 21.9557 19.4929 21.9105L15.6825 18.9593C15.6028 18.8978 15.5029 18.8686 15.4027 18.8775C15.3025 18.8864 15.2093 18.9327 15.1417 19.0073L13.4641 20.8561L14.0289 18.1145L19.7801 12.3625C19.8474 12.2949 19.8884 12.2055 19.8956 12.1104C19.9029 12.0152 19.8758 11.9207 19.8194 11.8437C19.7631 11.7667 19.681 11.7125 19.5881 11.6907C19.4952 11.6689 19.3976 11.681 19.3129 11.7249L11.0225 16.0433L7.8889 14.9537C7.80581 14.9263 7.73335 14.8736 7.68159 14.8031C7.62982 14.7325 7.60134 14.6476 7.6001 14.5601C7.59611 14.4718 7.61969 14.3845 7.66757 14.3103C7.71545 14.236 7.78526 14.1785 7.8673 14.1457L22.1985 8.3593C22.2719 8.3281 22.3526 8.318 22.4315 8.33016C22.5104 8.34231 22.5843 8.37623 22.6449 8.4281C22.7052 8.47689 22.7507 8.54148 22.7765 8.61466C22.8022 8.68783 22.807 8.76672 22.7905 8.8425L20.1817 21.6537Z"/>
<path fill-rule="evenodd" clip-rule="evenodd" d="M16 31C24.2843 31 31 24.2843 31 16C31 7.71573 24.2843 1 16 1C7.71573 1 1 7.71573 1 16C1 24.2843 7.71573 31 16 31ZM16 32C24.8366 32 32 24.8366 32 16C32 7.16344 24.8366 0 16 0C7.16344 0 0 7.16344 0 16C0 24.8366 7.16344 32 16 32Z"/>
</svg>
