<svg width="32" height="32" fill="none" xmlns="http://www.w3.org/2000/svg"><path fill-rule="evenodd" clip-rule="evenodd" d="M23.97 5.005a1.983 1.983 0 012.027 1.993v.01c-.039 2.442-.297 6.407-2.169 9.783-.946 1.707-2.309 3.272-4.26 4.405-1.95 1.132-4.432 1.8-7.565 1.8a1 1 0 010-2c2.844 0 4.966-.604 6.56-1.53 1.594-.925 2.718-2.204 3.516-3.644 1.611-2.906 1.878-6.426 1.918-8.817-8.36.155-12.201 2.256-14.052 4.895-1.038 1.48-1.521 3.212-1.746 5.094 1.332-1.385 3.428-2.584 6.68-2.99a1 1 0 11.248 1.984c-3.719.465-5.441 2.056-6.272 3.407a5.98 5.98 0 00-.75 1.859 4.944 4.944 0 00-.101.718L8.003 22v3.996a1 1 0 01-2 0v-4-.149c0-3.612-.001-7.807 2.305-11.095 2.395-3.416 7.045-5.589 15.663-5.747zm0 0h-.002l.023 1-.018-1h-.002zM8.004 22z" fill="#0F805D"/></svg>