<svg viewBox="0 0 123 50" fill="none" xmlns="http://www.w3.org/2000/svg"><path class="logo-body" d="M39.86 28.48c0-4.13-3.01-5.6-3.34-5.75.01-.1.01-.2.01-.29.11-.66.34-2.47-.05-4.17-.16-.72-.52-1.33-.92-1.84-2.28-4.9-8.2-6.44-15.16-6.44-7.02 0-12.98 1.57-15.22 6.57-.36.49-.67 1.05-.82 1.71-.32 1.42-.21 2.91-.11 3.76.01.24.02.48.04.72-.45.21-3.29 1.71-3.29 5.73 0 4.37 2.84 5.61 2.84 5.61s.03 5.16 3.22 7.95c3.18 2.78 6.52 2.8 6.52 2.8s1.74 3.67 6.85 3.67c5.11 0 6.85-3.67 6.85-3.67s3.46-.51 6.52-2.8c3.06-2.29 2.98-7.95 2.98-7.95s3.08-1.23 3.08-5.61z" fill="#B22EC8"/><path class="logo-leafs" d="M20.9 10.98c1.48 2.92 12.41 8.58 15.96-8.02-16.01-6.52-17.45 5.1-15.96 8.02z" fill="#0F805D"/><path class="logo-leafs" d="M4 2.96c3.56 16.61 14.48 10.95 15.96 8.02C21.44 8.06 20.01-3.56 4 2.96z" fill="#0F805D"/><path class="logo-shadow" d="M20.92 48.5s4.37-3.06 4.09-10.09c1.88-1.96 2.46-4.59.76-7.78 2.89-4.11 2.59-8.56-.87-11.94 1.42-2.05.68-3.83-.93-5.17 0 0 4.63 2.27 8.17-.98 0 0 7.45 5.36 4.34 10.17 0 0 8.23 5.56.29 11.38 0 0 1.16 8.86-9.3 10.71.01 0-2.75 3.12-6.55 3.7z" fill="#6A107A"/><path class="logo-stroke" d="M20.43 49.51c-4.51 0-6.69-2.57-7.44-3.71-1.18-.13-3.94-.69-6.58-3-2.86-2.5-3.42-6.6-3.53-8.11C1.89 34.01 0 32.24 0 28.48c0-3.71 2.12-5.57 3.27-6.3-.12-.92-.23-2.56.12-4.13.57-2.51 2.99-3.99 3.09-4.05.47-.28 1.09-.13 1.37.34.28.47.13 1.09-.34 1.37-.02.01-1.8 1.11-2.17 2.78-.42 1.88 0 4 0 4.03.1.47-.16.94-.6 1.12-.09.05-2.74 1.23-2.74 4.84s2.16 4.66 2.25 4.7c.35.16.59.52.59.9 0 .05.08 4.75 2.87 7.2 2.87 2.51 5.84 2.55 5.87 2.55.39 0 .74.22.9.57.06.12 1.57 3.1 5.94 3.1s5.88-2.98 5.95-3.11c.14-.29.43-.51.75-.56.03 0 3.26-.51 6.07-2.61 2.61-1.95 2.58-7.08 2.58-7.13-.01-.41.24-.79.63-.94.09-.04 2.45-1.09 2.45-4.68 0-3.61-2.65-4.79-2.76-4.84a.998.998 0 01-.59-1.12c0-.02.43-2.15 0-4.03-.38-1.66-2.15-2.77-2.17-2.78a.995.995 0 01-.34-1.37c.29-.47.9-.63 1.37-.34.1.06 2.52 1.54 3.09 4.05.36 1.57.24 3.21.12 4.13 1.15.73 3.28 2.59 3.28 6.3 0 3.78-2.04 5.55-3.09 6.21-.07 1.63-.54 6.03-3.37 8.15-2.57 1.92-5.37 2.66-6.49 2.9-.7 1.11-2.88 3.78-7.47 3.78zm6.87-7.1c-.16 0-.33-.04-.48-.12-.95-.52-1.65-1.21-2.06-2-1.12.72-2.58 1.13-4.13 1.13h-.2c-1.6 0-3.08-.43-4.2-1.17-.36.71-.95 1.34-1.73 1.84-.46.3-1.08.16-1.38-.3a.994.994 0 01.31-1.38c.76-.49 1.2-1.13 1.2-1.78 0-.1.01-.2.04-.29a.999.999 0 011.83-.57c.66.99 2.25 1.65 3.94 1.65h.2c1.64 0 3.16-.61 3.87-1.55.33-.44.96-.53 1.4-.2.2.15.32.35.37.58.05.12.08.25.08.38 0 .71.52 1.41 1.43 1.92.48.27.66.88.39 1.36-.19.31-.53.5-.88.5zm-20.7-8.1c-.44 0-.84-.29-.96-.73-.15-.53.16-1.08.69-1.24 1.53-.44 2.56-1.73 2.56-3.22v-.05c-.44-.76-.69-1.64-.69-2.58 0-.55.45-1 1-1s1 .45 1 1c0 1.85 1.62 3.36 3.62 3.36H14c2 0 3.62-1.51 3.62-3.36 0-.55.45-1 1-1s1 .45 1 1c0 2.96-2.52 5.36-5.62 5.36h-.18c-1.21 0-2.33-.37-3.24-.99-.59 1.59-1.95 2.89-3.7 3.39-.1.05-.19.06-.28.06zm27.85-.08c-.11 0-.22-.02-.33-.05-1.62-.56-2.85-1.79-3.4-3.3-.92.62-2.04.99-3.25.99h-.18c-3.1 0-5.62-2.41-5.62-5.36 0-.55.45-1 1-1s1 .45 1 1c0 1.85 1.62 3.36 3.62 3.36h.18c2 0 3.62-1.51 3.62-3.36 0-.55.45-1 1-1s1 .45 1 1c0 .92-.25 1.79-.68 2.55v.07c0 1.4.95 2.67 2.36 3.16.52.18.8.75.62 1.27-.14.41-.52.67-.94.67zm-.81-10.45c-3.1 0-5.62-2.54-5.62-5.67 0-.55.45-1 1-1s1 .45 1 1c0 2.02 1.62 3.67 3.62 3.67.55 0 1 .45 1 1s-.45 1-1 1zm-27.04 0c-.55 0-1-.45-1-1s.45-1 1-1c2 0 3.62-1.65 3.62-3.67 0-.55.45-1 1-1s1 .45 1 1c0 3.12-2.52 5.67-5.62 5.67zm14.11-2.34h-.18c-3.09 0-5.5-2.51-5.6-2.62a.996.996 0 111.45-1.37c.04.04 1.94 1.99 4.14 1.99h.18c2.2 0 4.12-1.97 4.14-1.99a.996.996 0 111.45 1.37c-.09.11-2.5 2.62-5.58 2.62zm6.77-6.12c-3.02 0-5.81-1.64-7.05-3.23-1.38 1.77-4.7 3.61-8.1 3.16C9.18 14.84 5 12.41 3.02 3.17c-.1-.47.15-.95.6-1.14 9.01-3.67 13.44-1.69 15.57.62.51.55.92 1.16 1.24 1.8.32-.64.73-1.25 1.24-1.8 2.13-2.31 6.55-4.3 15.57-.62a1 1 0 01.6 1.14c-1.98 9.24-6.16 11.67-9.32 12.08-.35.05-.69.07-1.04.07zm-5.3-4.25c1.04 1.15 3.55 2.53 6.09 2.2 3.45-.45 6.01-3.8 7.43-9.7-5.89-2.24-10.22-2.1-12.56.44-1.37 1.49-1.77 3.51-1.69 4.98 1.48-1.3 3.67-2.5 6.54-3.61.52-.2 1.09.06 1.29.58.2.52-.06 1.09-.58 1.29-3.07 1.19-5.31 2.5-6.52 3.82zM5.16 3.57c1.42 5.9 3.98 9.25 7.43 9.7 2.54.33 5.05-1.05 6.09-2.2-1.21-1.33-3.45-2.63-6.53-3.82-.52-.2-.77-.78-.58-1.29.2-.52.77-.77 1.29-.58 2.87 1.1 5.06 2.31 6.54 3.61.08-1.47-.32-3.49-1.69-4.98-2.33-2.53-6.66-2.68-12.55-.44z" fill="#000"/><g class="logo-text" fill="#0F805D"><path d="M67.533 37.715c-.614 0-.974-.307-1.08-.92a22.123 22.123 0 01-.2-2.88c-.08-2.053-.147-4.187-.2-6.4-.027-2.24-.04-3.867-.04-4.88a3.444 3.444 0 00-1.4 1.12c-.32.453-.627 1.04-.92 1.76-.48 1.307-.72 2.6-.72 3.88v1c0 .16-.014.653-.04 1.48a26.88 26.88 0 01-.24 2.72c-.16 1.333-.827 2.333-2 3-.187.107-.427.16-.72.16-.347 0-.64-.08-.88-.24-.214-.187-.28-.44-.2-.76.053-.187.133-.32.24-.4.106-.08.253-.16.44-.24.213-.08.373-.16.48-.24.4-.373.6-.88.6-1.52l.04-3.36c.053-1.307.12-2.307.2-3 .08-.72.28-1.547.6-2.48.106-.347.36-.893.76-1.64.4-.773.693-1.267.88-1.48-1.414-.693-2.4-1.56-2.96-2.6-.534-1.04-.8-2.56-.8-4.56 0-1.573.28-3.12.84-4.64.56-1.493 1.48-2.44 2.76-2.84l1.76-.6c.24-.107.507-.16.8-.16.56 0 1.2.24 1.92.72.453.267.68.707.68 1.32-.16 2.24-.24 3.933-.24 5.08v8.88c0 2.827.026 4.96.08 6.4.026 1.093.067 2.067.12 2.92.053.853.093 1.56.12 2.12l.12 2.2v.24c0 .347-.053.573-.16.68-.107.107-.32.16-.64.16zm-1.68-29.04c-.133.053-.44.16-.92.32-.454.16-.854.347-1.2.56-.4.187-.773.587-1.12 1.2a8.954 8.954 0 00-.76 1.88c-.187.667-.267 1.173-.24 1.52l.08 1.76c0 .827.013 1.48.04 1.96.027.747.24 1.373.64 1.88.427.48 1.013.813 1.76 1 .293.08.627.2 1 .36.4.133.693.24.88.32l-.16-12.76zM73.49 37.835c-.026-.107-.08-.293-.16-.56a2.057 2.057 0 01-.04-.68c.054-3.093.134-5.4.24-6.92.027-.56.04-1.387.04-2.48 0-1.973-.093-4.36-.28-7.16-.16-3.413-.24-6-.24-7.76 0-.4.16-.76.48-1.08.32-.32.707-.48 1.16-.48 1.52 0 2.84.12 3.96.36.534.107.88.293 1.04.56.16.24.214.653.16 1.24-.373.24-.76.36-1.16.36-.133 0-.333-.027-.6-.08-.24-.053-.88-.107-1.92-.16h-.08c-.373 0-.56.2-.56.6-.133 3.867-.2 6.067-.2 6.6.054 2.773.107 4.867.16 6.28 0 .187.014.413.04.68.027.267.027.493 0 .68-.08 1.227-.12 2.52-.12 3.88 0 2.213.04 3.76.12 4.64-.026.587-.12.987-.28 1.2-.16.24-.453.36-.88.36-.106 0-.4-.027-.88-.08zM87.263 38.275c-.693 0-1.333-.227-1.92-.68-.586-.427-1.066-1.013-1.44-1.76-.773-1.627-1.253-3.4-1.44-5.32-.24-1.813-.36-3.56-.36-5.24 0-.32.014-.587.04-.8v-.72c0-.133-.013-.2-.04-.2v-.72l.04-2.8c.027-.853.134-2.213.32-4.08.134-1.28.44-2.52.92-3.72.187-.533.427-.933.72-1.2.294-.293.627-.44 1-.44 1.067 0 2.027.2 2.88.6a5.87 5.87 0 012.16 1.6c.534.667.987 1.493 1.36 2.48.374.96.64 1.987.8 3.08.16 1.12.24 2.307.24 3.56v.32c0 .827.014 1.573.04 2.24l.04 2.28c0 7.68-1.786 11.52-5.36 11.52zm-.16-1.68c.48 0 .92-.187 1.32-.56.4-.4.707-.933.92-1.6.507-1.36.814-2.827.92-4.4.134-1.36.2-2.533.2-3.52 0-1.2-.093-2.773-.28-4.72-.16-2.053-.24-3.587-.24-4.6v-.72c-.053-1.013-.4-1.893-1.04-2.64-.613-.747-1.373-1.12-2.28-1.12-.906 0-1.506.52-1.8 1.56-.266.827-.4 1.893-.4 3.2 0 .507.014.933.04 1.28v1.08l-.08 1.84c-.053.56-.08 1.173-.08 1.84 0 1.44.04 2.867.12 4.28.107 2 .374 3.947.8 5.84.427 1.973 1.054 2.96 1.88 2.96zM110.947 42.435c-.214.053-.374.08-.48.08-.32 0-.547-.2-.68-.6-.107-.32-.16-.72-.16-1.2l.04-2.76a2.3 2.3 0 00-.04-.44 56.565 56.565 0 01-.08-.4h-4.6c.266 0-.374.133-1.92.4-1.52.24-2.707.4-3.56.48l-1.8.16-2 .2v.88c.026.347.026.76 0 1.24v.2c0 .427-.107.747-.32.96-.214.213-.414.32-.6.32-.107 0-.267-.053-.48-.16-.48-.347-.747-.827-.8-1.44l-.12-2.92c-.054-1.04.373-1.56 1.28-1.56.506-.027.906-.16 1.2-.4.293-.24.64-.613 1.04-1.12.4-.533.706-1.12.92-1.76.24-.667.466-1.467.68-2.4.24-1.013.413-2 .52-2.96.106-.96.24-2.333.4-4.12.24-2.8.36-5.613.36-8.44l-.04-2.24c0-.507.146-.92.44-1.24.293-.347.693-.52 1.2-.52.16 0 .28.013.36.04 1.226.213 2.226.347 3 .4h.2c.346 0 .546-.067.6-.2.24-.32.533-.48.88-.48.24 0 .453.053.64.16.426.16.706.56.84 1.2l-.2 6.84c0 3.707.013 6.48.04 8.32 0 .96.026 2.427.08 4.4l.04 2.2c0 .213.013.413.04.6l.08.56c.533.053.933.08 1.2.08.213 0 .373-.013.48-.04a1.943 1.943 0 011.56.44c.48.347.72.8.72 1.36 0 .72-.054 1.8-.16 3.24 0 .373-.027.907-.08 1.6-.054.56-.294.907-.72 1.04zm-11.52-6.36c1.493-.133 2.666-.253 3.52-.36.88-.133 1.746-.333 2.6-.6.266-3.227.4-6.68.4-10.36 0-3.413-.134-7.16-.4-11.24-.694-.027-1.987-.093-3.88-.2l-.04 1.88c-.214 4.107-.36 7.173-.44 9.2a33.281 33.281 0 01-1.56 8.96c-.054.16-.174.56-.36 1.2a4.449 4.449 0 01-.76 1.6l.92-.08zM122.221 37.875c-.613 0-1.066-.093-1.36-.28-.293-.187-.44-.533-.44-1.04 0-.8-.133-2.16-.4-4.08l-.16-.84-3.96-.6c-.16.613-.386 1.853-.68 3.72-.16 1.307-.413 2.173-.76 2.6-.186.24-.453.36-.8.36-.32 0-.613-.093-.88-.28-.266-.213-.4-.467-.4-.76l.08-.2.04-.16c1.76-6.853 3.094-13.613 4-20.28 0-.107.014-.28.04-.52.027-.267.054-.64.08-1.12.08-.987.16-1.773.24-2.36.107-.587.267-1.027.48-1.32h1.36c.374 0 .694.093.96.28.267.16.4.4.4.72 0 2.027.28 5.04.84 9.04.534 4.107.8 6.987.8 8.64 0 .16.067.573.2 1.24.134.613.2 1.013.2 1.2 0 .187.134.987.4 2.4.24 1.28.36 2.107.36 2.48v.04c0 .587-.213.96-.64 1.12zm-2.64-7.68c-.08-.4-.12-.893-.12-1.48 0-2.4-.213-5.467-.64-9.2l-.4-4.16c-1.146 6.267-1.933 11-2.36 14.2.4.267 1.574.48 3.52.64z"/></g></svg>