<svg width="32" height="32" fill="none" xmlns="http://www.w3.org/2000/svg"><path d="M16.004 28a.924.924 0 01-.606-.22.705.705 0 01-.252-.53v-1.94l-1.108.971a.924.924 0 01-.607.22.924.924 0 01-.606-.22.706.706 0 01-.251-.531c0-.2.09-.39.252-.531l2.32-2.03V17.3l-5.832 2.945-.85 2.774a.773.773 0 01-.401.456.967.967 0 01-.651.074.852.852 0 01-.52-.35.668.668 0 01-.086-.57l.407-1.323-1.922.97a.967.967 0 01-.648.071.852.852 0 01-.518-.349.668.668 0 01-.087-.566.77.77 0 01.396-.456l1.921-.969-1.516-.355a.912.912 0 01-.3-.13.79.79 0 01-.22-.22.66.66 0 01-.085-.57.718.718 0 01.147-.262.835.835 0 01.252-.193.979.979 0 01.651-.074l3.17.743L14.29 16l-5.833-2.944-3.173.742a.965.965 0 01-.643-.082.77.77 0 01-.393-.452.668.668 0 01.082-.564.849.849 0 01.511-.351l1.515-.356-1.921-.969a.835.835 0 01-.254-.192.717.717 0 01-.15-.263.66.66 0 01.085-.572.792.792 0 01.222-.22.913.913 0 01.301-.13.977.977 0 01.653.079l1.922.968-.407-1.324a.66.66 0 01.079-.576.79.79 0 01.222-.223.912.912 0 01.303-.131.977.977 0 01.657.078.83.83 0 01.251.198c.068.08.118.17.145.267l.85 2.774 5.833 2.944v-5.89l-2.32-2.03a.752.752 0 01-.187-.243.67.67 0 010-.575.752.752 0 01.186-.243.875.875 0 01.278-.163.966.966 0 01.657 0 .876.876 0 01.278.162l1.108.97V4.75c0-.199.09-.39.252-.53.16-.141.379-.22.606-.22.227 0 .446.079.606.22.161.14.252.331.252.53v1.94l1.11-.971c.16-.14.379-.22.607-.22.227 0 .445.08.606.22.161.142.251.333.251.532s-.09.39-.252.53l-2.322 2.03v5.89l5.832-2.944.85-2.775a.773.773 0 01.401-.456.967.967 0 01.651-.074c.22.052.407.178.521.35a.669.669 0 01.085.57l-.405 1.322 1.921-.969a.967.967 0 01.649-.071.852.852 0 01.518.348.669.669 0 01.086.567.77.77 0 01-.395.455l-1.921.97 1.514.355c.22.052.407.178.521.35a.669.669 0 01.085.57.773.773 0 01-.4.455.967.967 0 01-.651.074l-3.17-.742L17.72 16l5.832 2.945 3.172-.743a.967.967 0 01.65.075c.198.1.341.263.4.455a.668.668 0 01-.085.57.852.852 0 01-.521.349l-1.515.355 1.921.97a.77.77 0 01.396.455.669.669 0 01-.087.566.852.852 0 01-.518.35.967.967 0 01-.648-.073l-1.922-.969.405 1.325a.659.659 0 01-.079.576.79.79 0 01-.221.223.912.912 0 01-.303.131.977.977 0 01-.657-.078.83.83 0 01-.252-.198.713.713 0 01-.145-.267l-.849-2.773-5.832-2.945v5.89l2.32 2.03c.162.14.252.331.253.53 0 .2-.09.39-.252.531a.924.924 0 01-.606.22.925.925 0 01-.607-.219l-1.11-.97v1.939c0 .199-.09.39-.251.53a.924.924 0 01-.607.22h.002z" fill="#0F805D"/></svg>