<svg xmlns="http://www.w3.org/2000/svg" xmlns:xlink="http://www.w3.org/1999/xlink"><symbol id="academy" viewBox="0 0 27 34">
  <path d="M13.6426 0.0157537L13.5 0L0 1.40733V26.0129L13.5 34L27 26.0129V1.40733L13.6426 0.0157537ZM25.2344 25.0151L13.5 31.9573L1.76561 25.0151V14.9293L13.4507 21.8451L13.4701 23.0984L5.45351 18.3548L5.44295 19.5801L13.4894 24.3885L13.5088 25.675L5.46408 20.9174L5.45351 22.1427L13.5 26.9511L21.6239 22.1182V20.8929V16.909L25.2432 14.7595L25.2344 25.0151ZM25.2344 13.4519L22.0147 15.3319L20.5325 16.2071L13.4666 12.0201L13.456 13.2454L19.4957 16.818L19.4429 16.8495L19.3126 16.9247L18.4536 17.4166L13.4666 14.4689L13.456 15.6942L17.3921 18.0222L16.4591 18.6314L16.438 18.6436L13.4666 16.902L13.456 18.1273L15.4029 19.2615L13.4155 20.4483L1.7973 13.5762L13.4349 6.61831L25.2344 13.4519ZM25.2344 12.2266L13.4401 5.31075L1.76561 12.2196V2.9897L13.5 1.76442L25.2344 2.9897V12.2266Z"/>
</symbol><symbol id="call" viewBox="0 0 15 20">
<path d="M3.88792 0.101671L3.02752 0.360871C2.26141 0.591906 1.57724 1.03698 1.05555 1.64372C0.533848 2.25045 0.196329 2.99359 0.0827165 3.78567C-0.273684 6.26727 0.523116 9.16887 2.44432 12.4965C4.36072 15.8157 6.47032 17.9541 8.79232 18.8901C9.53839 19.1908 10.3551 19.2709 11.1454 19.1209C11.9357 18.9709 12.6663 18.5972 13.2503 18.0441L13.9007 17.4273C14.3231 17.0276 14.5859 16.4881 14.6404 15.9092C14.6949 15.3302 14.5374 14.7512 14.1971 14.2797L12.5699 12.0237C12.3499 11.7191 12.0401 11.491 11.684 11.3714C11.3278 11.2517 10.9432 11.2465 10.5839 11.3565L8.12272 12.1089L8.05912 12.1209C7.78792 12.1605 7.16152 11.5737 6.38152 10.2225C5.56552 8.80887 5.39752 7.98207 5.62192 7.76847L6.87352 6.60087C7.33121 6.17423 7.64386 5.615 7.76761 5.00165C7.89135 4.3883 7.81999 3.7516 7.56352 3.18087L6.76912 1.41567C6.53024 0.884483 6.10635 0.458285 5.57647 0.216526C5.04659 -0.0252327 4.44687 -0.0660543 3.88912 0.101671H3.88792ZM5.67592 1.90767L6.46792 3.67287C6.62216 4.01515 6.66529 4.39715 6.59125 4.7652C6.51721 5.13326 6.32972 5.46886 6.05512 5.72487L4.79992 6.89367C3.99712 7.65447 4.26352 8.95287 5.34352 10.8225C6.35872 12.5817 7.28512 13.4505 8.28112 13.2993L8.42992 13.2681L10.9355 12.5037C11.0553 12.4669 11.1836 12.4685 11.3024 12.5083C11.4212 12.5481 11.5245 12.6241 11.5979 12.7257L13.2251 14.9817C13.3955 15.2174 13.4745 15.507 13.4473 15.7966C13.4202 16.0862 13.2888 16.3561 13.0775 16.5561L12.4259 17.1729C12.0087 17.5677 11.487 17.8345 10.9226 17.9415C10.3583 18.0485 9.77507 17.9912 9.24232 17.7765C7.20472 16.9557 5.27872 15.0033 3.48472 11.8965C1.68592 8.78247 0.957517 6.13407 1.27072 3.95607C1.35179 3.39019 1.59286 2.85925 1.96554 2.42577C2.33822 1.99228 2.82699 1.67431 3.37432 1.50927L4.23472 1.25007C4.51367 1.16625 4.81358 1.18675 5.07853 1.30774C5.34348 1.42874 5.55538 1.64197 5.67472 1.90767H5.67592Z"/>
</symbol><symbol id="leaf" viewBox="0 0 15 23">
<path d="M12.9212 5.28675C11.6813 3.18588 9.92091 1.43992 7.80994 0.217219L7.43438 0L7.05881 0.217219C4.91192 1.45623 3.1292 3.23882 1.89005 5.38563C0.650902 7.53245 -0.000978941 9.96776 1.10342e-06 12.4465C1.10342e-06 12.608 0.0028137 12.772 0.00829807 12.934C0.0829231 15.1304 0.922876 16.9785 2.43736 18.2786C3.5963 19.2735 5.08289 19.8809 6.68456 20.0258V22.6164H8.18456V10.6164H6.68438V18.5162C4.15013 18.2226 1.62783 16.4324 1.50731 12.883C1.50234 12.738 1.49981 12.5911 1.49981 12.4465C1.50428 10.3062 2.0509 8.20188 3.08866 6.32995C4.12642 4.45803 5.6215 2.87952 7.43438 1.74173C9.24721 2.87954 10.7423 4.45806 11.78 6.32998C12.8177 8.20191 13.3643 10.3062 13.3688 12.4465C13.3688 12.5911 13.3662 12.738 13.3613 12.8831C13.2649 15.7224 11.6312 17.4359 9.68419 18.1582V19.7457C10.6946 19.4593 11.6315 18.959 12.4314 18.2785C13.9459 16.9785 14.7858 15.1303 14.8605 12.934C14.8659 12.772 14.8688 12.608 14.8688 12.4465C14.8701 9.92888 14.1977 7.45679 12.9212 5.28675V5.28675Z"/>
</symbol><symbol id="logo" viewBox="0 0 123 50">
<style type="text/css">
.logo-text {
  display: none;
}

</style>

<path class="logo-body" d="M39.86 28.4801C39.86 24.3501 36.85 22.8801 36.52 22.7301C36.53 22.6301 36.53 22.5301 36.53 22.4401C36.64 21.7801 36.87 19.9701 36.48 18.2701C36.32 17.5501 35.96 16.9401 35.56 16.4301C33.28 11.5301 27.36 9.99005 20.4 9.99005C13.38 9.99005 7.42 11.5601 5.18 16.5601C4.82 17.0501 4.51 17.6101 4.36 18.2701C4.04 19.6901 4.15 21.1801 4.25 22.0301C4.26 22.2701 4.27 22.5101 4.29 22.7501C3.84 22.9601 1 24.4601 1 28.4801C1 32.8501 3.84 34.0901 3.84 34.0901C3.84 34.0901 3.87 39.2501 7.06 42.0401C10.24 44.8201 13.58 44.84 13.58 44.84C13.58 44.84 15.32 48.51 20.43 48.51C25.54 48.51 27.28 44.84 27.28 44.84C27.28 44.84 30.74 44.3301 33.8 42.0401C36.86 39.7501 36.78 34.0901 36.78 34.0901C36.78 34.0901 39.86 32.8601 39.86 28.4801Z" fill="#B22EC8"/>
<path class="logo-leafs" d="M20.8999 10.98C22.3799 13.9 33.3099 19.56 36.8599 2.96003C20.8499 -3.55997 19.4099 8.06003 20.8999 10.98Z" fill="#0F805D"/>
<path class="logo-leafs" d="M4 2.96003C7.56 19.57 18.48 13.91 19.96 10.98C21.44 8.06003 20.01 -3.55997 4 2.96003Z" fill="#0F805D"/>
<path class="logo-shadow" d="M20.9199 48.5C20.9199 48.5 25.2899 45.44 25.0099 38.41C26.8899 36.45 27.4699 33.82 25.7699 30.63C28.6599 26.52 28.3599 22.07 24.8999 18.69C26.3199 16.64 25.5799 14.86 23.9699 13.52C23.9699 13.52 28.5999 15.79 32.1399 12.54C32.1399 12.54 39.5899 17.9 36.4799 22.71C36.4799 22.71 44.7099 28.27 36.7699 34.09C36.7699 34.09 37.9299 42.95 27.4699 44.8C27.4799 44.8 24.7199 47.92 20.9199 48.5Z" fill="#6A107A"/>
<path class="logo-stroke" d="M20.43 49.51C15.92 49.51 13.74 46.94 12.99 45.8C11.81 45.67 9.05 45.11 6.41 42.8C3.55 40.3 2.99 36.2 2.88 34.69C1.89 34.01 0 32.24 0 28.48C0 24.77 2.12 22.91 3.27 22.18C3.15 21.26 3.04 19.62 3.39 18.05C3.96 15.54 6.38 14.06 6.48 14C6.95 13.72 7.57 13.87 7.85 14.34C8.13 14.81 7.98 15.43 7.51 15.71C7.49 15.72 5.71 16.82 5.34 18.49C4.92 20.37 5.34 22.49 5.34 22.52C5.44 22.99 5.18 23.46 4.74 23.64C4.65 23.69 2 24.87 2 28.48C2 32.09 4.16 33.14 4.25 33.18C4.6 33.34 4.84 33.7 4.84 34.08C4.84 34.13 4.92 38.83 7.71 41.28C10.58 43.79 13.55 43.83 13.58 43.83C13.97 43.83 14.32 44.05 14.48 44.4C14.54 44.52 16.05 47.5 20.42 47.5C24.79 47.5 26.3 44.52 26.37 44.39C26.51 44.1 26.8 43.88 27.12 43.83C27.15 43.83 30.38 43.32 33.19 41.22C35.8 39.27 35.77 34.14 35.77 34.09C35.76 33.68 36.01 33.3 36.4 33.15C36.49 33.11 38.85 32.06 38.85 28.47C38.85 24.86 36.2 23.68 36.09 23.63C35.65 23.44 35.4 22.97 35.5 22.51C35.5 22.49 35.93 20.36 35.5 18.48C35.12 16.82 33.35 15.71 33.33 15.7C32.86 15.42 32.7 14.8 32.99 14.33C33.28 13.86 33.89 13.7 34.36 13.99C34.46 14.05 36.88 15.53 37.45 18.04C37.81 19.61 37.69 21.25 37.57 22.17C38.72 22.9 40.85 24.76 40.85 28.47C40.85 32.25 38.81 34.02 37.76 34.68C37.69 36.31 37.22 40.71 34.39 42.83C31.82 44.75 29.02 45.49 27.9 45.73C27.2 46.84 25.02 49.51 20.43 49.51ZM27.3 42.41C27.14 42.41 26.97 42.37 26.82 42.29C25.87 41.77 25.17 41.08 24.76 40.29C23.64 41.01 22.18 41.42 20.63 41.42C20.6 41.42 20.56 41.42 20.53 41.42C20.5 41.42 20.46 41.42 20.43 41.42C18.83 41.42 17.35 40.99 16.23 40.25C15.87 40.96 15.28 41.59 14.5 42.09C14.04 42.39 13.42 42.25 13.12 41.79C12.82 41.32 12.96 40.71 13.43 40.41C14.19 39.92 14.63 39.28 14.63 38.63C14.63 38.53 14.64 38.43 14.67 38.34C14.67 38.01 14.82 37.7 15.11 37.5C15.57 37.19 16.19 37.31 16.5 37.77C17.16 38.76 18.75 39.42 20.44 39.42C20.47 39.42 20.51 39.42 20.54 39.42C20.57 39.42 20.61 39.42 20.64 39.42C22.28 39.42 23.8 38.81 24.51 37.87C24.84 37.43 25.47 37.34 25.91 37.67C26.11 37.82 26.23 38.02 26.28 38.25C26.33 38.37 26.36 38.5 26.36 38.63C26.36 39.34 26.88 40.04 27.79 40.55C28.27 40.82 28.45 41.43 28.18 41.91C27.99 42.22 27.65 42.41 27.3 42.41ZM6.6 34.31C6.16 34.31 5.76 34.02 5.64 33.58C5.49 33.05 5.8 32.5 6.33 32.34C7.86 31.9 8.89 30.61 8.89 29.12C8.89 29.1 8.89 29.09 8.89 29.07C8.45 28.31 8.2 27.43 8.2 26.49C8.2 25.94 8.65 25.49 9.2 25.49C9.75 25.49 10.2 25.94 10.2 26.49C10.2 28.34 11.82 29.85 13.82 29.85C13.85 29.85 13.88 29.85 13.91 29.85C13.94 29.85 13.97 29.85 14 29.85C16 29.85 17.62 28.34 17.62 26.49C17.62 25.94 18.07 25.49 18.62 25.49C19.17 25.49 19.62 25.94 19.62 26.49C19.62 29.45 17.1 31.85 14 31.85C13.97 31.85 13.94 31.85 13.91 31.85C13.88 31.85 13.85 31.85 13.82 31.85C12.61 31.85 11.49 31.48 10.58 30.86C9.99 32.45 8.63 33.75 6.88 34.25C6.78 34.3 6.69 34.31 6.6 34.31ZM34.45 34.23C34.34 34.23 34.23 34.21 34.12 34.18C32.5 33.62 31.27 32.39 30.72 30.88C29.8 31.5 28.68 31.87 27.47 31.87C27.44 31.87 27.41 31.87 27.38 31.87C27.35 31.87 27.32 31.87 27.29 31.87C24.19 31.87 21.67 29.46 21.67 26.51C21.67 25.96 22.12 25.51 22.67 25.51C23.22 25.51 23.67 25.96 23.67 26.51C23.67 28.36 25.29 29.87 27.29 29.87C27.32 29.87 27.35 29.87 27.38 29.87C27.41 29.87 27.44 29.87 27.47 29.87C29.47 29.87 31.09 28.36 31.09 26.51C31.09 25.96 31.54 25.51 32.09 25.51C32.64 25.51 33.09 25.96 33.09 26.51C33.09 27.43 32.84 28.3 32.41 29.06C32.41 29.08 32.41 29.11 32.41 29.13C32.41 30.53 33.36 31.8 34.77 32.29C35.29 32.47 35.57 33.04 35.39 33.56C35.25 33.97 34.87 34.23 34.45 34.23ZM33.64 23.78C30.54 23.78 28.02 21.24 28.02 18.11C28.02 17.56 28.47 17.11 29.02 17.11C29.57 17.11 30.02 17.56 30.02 18.11C30.02 20.13 31.64 21.78 33.64 21.78C34.19 21.78 34.64 22.23 34.64 22.78C34.64 23.33 34.19 23.78 33.64 23.78ZM6.6 23.78C6.05 23.78 5.6 23.33 5.6 22.78C5.6 22.23 6.05 21.78 6.6 21.78C8.6 21.78 10.22 20.13 10.22 18.11C10.22 17.56 10.67 17.11 11.22 17.11C11.77 17.11 12.22 17.56 12.22 18.11C12.22 21.23 9.7 23.78 6.6 23.78ZM20.71 21.44C20.68 21.44 20.65 21.44 20.62 21.44C20.59 21.44 20.56 21.44 20.53 21.44C17.44 21.44 15.03 18.93 14.93 18.82C14.55 18.42 14.57 17.79 14.97 17.41C15.37 17.03 16 17.05 16.38 17.45C16.42 17.49 18.32 19.44 20.52 19.44C20.55 19.44 20.58 19.44 20.61 19.44C20.64 19.44 20.67 19.44 20.7 19.44C22.9 19.44 24.82 17.47 24.84 17.45C25.22 17.05 25.85 17.03 26.25 17.41C26.65 17.79 26.67 18.42 26.29 18.82C26.2 18.93 23.79 21.44 20.71 21.44ZM27.48 15.32C24.46 15.32 21.67 13.68 20.43 12.09C19.05 13.86 15.73 15.7 12.33 15.25C9.18 14.84 5 12.41 3.02 3.17003C2.92 2.70003 3.17 2.22003 3.62 2.03003C12.63 -1.63998 17.06 0.340026 19.19 2.65003C19.7 3.20003 20.11 3.81003 20.43 4.45003C20.75 3.81003 21.16 3.20003 21.67 2.65003C23.8 0.340026 28.22 -1.64998 37.24 2.03003C37.69 2.21003 37.94 2.69003 37.84 3.17003C35.86 12.41 31.68 14.84 28.52 15.25C28.17 15.3 27.83 15.32 27.48 15.32ZM22.18 11.07C23.22 12.22 25.73 13.6 28.27 13.27C31.72 12.82 34.28 9.47003 35.7 3.57002C29.81 1.33002 25.48 1.47003 23.14 4.01003C21.77 5.50003 21.37 7.52002 21.45 8.99002C22.93 7.69002 25.12 6.49003 27.99 5.38003C28.51 5.18003 29.08 5.44003 29.28 5.96003C29.48 6.48003 29.22 7.05003 28.7 7.25003C25.63 8.44003 23.39 9.75002 22.18 11.07ZM5.16 3.57002C6.58 9.47003 9.14 12.82 12.59 13.27C15.13 13.6 17.64 12.22 18.68 11.07C17.47 9.74002 15.23 8.44003 12.15 7.25003C11.63 7.05003 11.38 6.47003 11.57 5.96003C11.77 5.44003 12.34 5.19003 12.86 5.38003C15.73 6.48003 17.92 7.69002 19.4 8.99002C19.48 7.52002 19.08 5.50003 17.71 4.01003C15.38 1.48003 11.05 1.33002 5.16 3.57002Z" fill="#000000"/>
<g class="logo-text">
<path d="M67.5328 37.715C66.9195 37.715 66.5595 37.4083 66.4528 36.795C66.3195 35.7817 66.2528 34.8217 66.2528 33.915C66.1728 31.8617 66.1062 29.7283 66.0528 27.515C66.0262 25.275 66.0128 23.6483 66.0128 22.635C65.4262 22.9017 64.9595 23.275 64.6128 23.755C64.2928 24.2083 63.9862 24.795 63.6928 25.515C63.2128 26.8217 62.9728 28.115 62.9728 29.395V30.395C62.9728 30.555 62.9595 31.0483 62.9328 31.875C62.9062 32.7017 62.8262 33.6083 62.6928 34.595C62.5328 35.9283 61.8662 36.9283 60.6928 37.595C60.5062 37.7017 60.2662 37.755 59.9728 37.755C59.6262 37.755 59.3328 37.675 59.0928 37.515C58.8795 37.3283 58.8128 37.075 58.8928 36.755C58.9462 36.5683 59.0262 36.435 59.1328 36.355C59.2395 36.275 59.3862 36.195 59.5728 36.115C59.7862 36.035 59.9462 35.955 60.0528 35.875C60.4528 35.5017 60.6528 34.995 60.6528 34.355L60.6928 30.995C60.7462 29.6883 60.8128 28.6883 60.8928 27.995C60.9728 27.275 61.1728 26.4483 61.4928 25.515C61.5995 25.1683 61.8528 24.6217 62.2528 23.875C62.6528 23.1017 62.9462 22.6083 63.1328 22.395C61.7195 21.7017 60.7328 20.835 60.1728 19.795C59.6395 18.755 59.3728 17.235 59.3728 15.235C59.3728 13.6617 59.6528 12.115 60.2128 10.595C60.7728 9.10166 61.6928 8.15499 62.9728 7.755L64.7328 7.15499C64.9728 7.04833 65.2395 6.995 65.5328 6.995C66.0928 6.995 66.7328 7.23499 67.4528 7.71499C67.9062 7.98166 68.1328 8.42166 68.1328 9.035C67.9728 11.275 67.8928 12.9683 67.8928 14.115V22.995C67.8928 25.8217 67.9195 27.955 67.9728 29.395C67.9995 30.4883 68.0395 31.4617 68.0928 32.315C68.1462 33.1683 68.1862 33.875 68.2128 34.435L68.3328 36.635V36.875C68.3328 37.2217 68.2795 37.4483 68.1728 37.555C68.0662 37.6617 67.8528 37.715 67.5328 37.715ZM65.8528 8.675C65.7195 8.72833 65.4128 8.83499 64.9328 8.99499C64.4795 9.15499 64.0795 9.34166 63.7328 9.55499C63.3328 9.74166 62.9595 10.1417 62.6128 10.755C62.2928 11.3417 62.0395 11.9683 61.8528 12.635C61.6662 13.3017 61.5862 13.8083 61.6128 14.155L61.6928 15.915C61.6928 16.7417 61.7062 17.395 61.7328 17.875C61.7595 18.6217 61.9728 19.2483 62.3728 19.755C62.7995 20.235 63.3862 20.5683 64.1328 20.755C64.4262 20.835 64.7595 20.955 65.1328 21.115C65.5328 21.2483 65.8262 21.355 66.0128 21.435L65.8528 8.675Z" fill="#0F805D"/>
<path d="M73.4903 37.835C73.4637 37.7283 73.4103 37.5417 73.3303 37.275C73.277 37.0083 73.2637 36.7817 73.2903 36.595C73.3437 33.5017 73.4237 31.195 73.5303 29.675C73.557 29.115 73.5703 28.2883 73.5703 27.195C73.5703 25.2217 73.477 22.835 73.2903 20.035C73.1303 16.6217 73.0503 14.035 73.0503 12.275C73.0503 11.875 73.2103 11.515 73.5303 11.195C73.8503 10.875 74.237 10.715 74.6903 10.715C76.2103 10.715 77.5303 10.835 78.6503 11.075C79.1837 11.1817 79.5303 11.3683 79.6903 11.635C79.8503 11.875 79.9037 12.2883 79.8503 12.875C79.477 13.115 79.0903 13.235 78.6903 13.235C78.557 13.235 78.357 13.2083 78.0903 13.155C77.8503 13.1017 77.2103 13.0483 76.1703 12.995H76.0903C75.717 12.995 75.5303 13.195 75.5303 13.595C75.397 17.4617 75.3303 19.6617 75.3303 20.195C75.3837 22.9683 75.437 25.0617 75.4903 26.475C75.4903 26.6617 75.5037 26.8883 75.5303 27.155C75.557 27.4217 75.557 27.6483 75.5303 27.835C75.4503 29.0617 75.4103 30.355 75.4103 31.715C75.4103 33.9283 75.4503 35.475 75.5303 36.355C75.5037 36.9417 75.4103 37.3417 75.2503 37.555C75.0903 37.795 74.797 37.915 74.3703 37.915C74.2637 37.915 73.9703 37.8883 73.4903 37.835Z" fill="#0F805D"/>
<path d="M87.2635 38.275C86.5701 38.275 85.9301 38.0483 85.3435 37.595C84.7568 37.1683 84.2768 36.5817 83.9035 35.835C83.1301 34.2083 82.6501 32.435 82.4635 30.515C82.2235 28.7017 82.1035 26.955 82.1035 25.275C82.1035 24.955 82.1168 24.6883 82.1435 24.475V23.755C82.1435 23.6217 82.1301 23.555 82.1035 23.555V22.835L82.1435 20.035C82.1701 19.1817 82.2768 17.8217 82.4635 15.955C82.5968 14.675 82.9035 13.435 83.3835 12.235C83.5701 11.7017 83.8101 11.3017 84.1035 11.035C84.3968 10.7417 84.7301 10.595 85.1035 10.595C86.1701 10.595 87.1301 10.795 87.9835 11.195C88.8368 11.5683 89.5568 12.1017 90.1435 12.795C90.6768 13.4617 91.1301 14.2883 91.5035 15.275C91.8768 16.235 92.1435 17.2617 92.3035 18.355C92.4635 19.475 92.5435 20.6617 92.5435 21.915V22.235C92.5435 23.0617 92.5568 23.8083 92.5835 24.475L92.6235 26.755C92.6235 34.435 90.8368 38.275 87.2635 38.275ZM87.1035 36.595C87.5835 36.595 88.0235 36.4083 88.4235 36.035C88.8235 35.635 89.1301 35.1017 89.3435 34.435C89.8501 33.075 90.1568 31.6083 90.2635 30.035C90.3968 28.675 90.4635 27.5017 90.4635 26.515C90.4635 25.315 90.3701 23.7417 90.1835 21.795C90.0235 19.7417 89.9435 18.2083 89.9435 17.195V16.475C89.8901 15.4617 89.5435 14.5817 88.9035 13.835C88.2901 13.0883 87.5301 12.715 86.6235 12.715C85.7168 12.715 85.1168 13.235 84.8235 14.275C84.5568 15.1017 84.4235 16.1683 84.4235 17.475C84.4235 17.9817 84.4368 18.4083 84.4635 18.755V19.835L84.3835 21.675C84.3301 22.235 84.3035 22.8483 84.3035 23.515C84.3035 24.955 84.3435 26.3817 84.4235 27.795C84.5301 29.795 84.7968 31.7417 85.2235 33.635C85.6501 35.6083 86.2768 36.595 87.1035 36.595Z" fill="#0F805D"/>
<path d="M110.947 42.435C110.733 42.4883 110.573 42.515 110.467 42.515C110.147 42.515 109.92 42.315 109.787 41.915C109.68 41.595 109.627 41.195 109.627 40.715L109.667 37.955C109.667 37.795 109.653 37.6483 109.627 37.515C109.6 37.3817 109.573 37.2483 109.547 37.115H104.947C105.213 37.115 104.573 37.2483 103.027 37.515C101.507 37.755 100.32 37.915 99.4667 37.995L97.6667 38.155L95.6667 38.355C95.6667 38.595 95.6667 38.8883 95.6667 39.235C95.6934 39.5817 95.6934 39.995 95.6667 40.475V40.675C95.6667 41.1017 95.56 41.4217 95.3467 41.635C95.1334 41.8483 94.9334 41.955 94.7467 41.955C94.64 41.955 94.48 41.9017 94.2667 41.795C93.7867 41.4483 93.52 40.9683 93.4667 40.355L93.3467 37.435C93.2934 36.395 93.72 35.875 94.6267 35.875C95.1333 35.8483 95.5334 35.715 95.8267 35.475C96.12 35.235 96.4667 34.8617 96.8667 34.355C97.2667 33.8217 97.5733 33.235 97.7867 32.595C98.0267 31.9283 98.2533 31.1283 98.4667 30.195C98.7067 29.1817 98.88 28.195 98.9867 27.235C99.0934 26.275 99.2267 24.9017 99.3867 23.115C99.6267 20.315 99.7467 17.5017 99.7467 14.675L99.7067 12.435C99.7067 11.9283 99.8534 11.515 100.147 11.195C100.44 10.8483 100.84 10.675 101.347 10.675C101.507 10.675 101.627 10.6883 101.707 10.715C102.933 10.9283 103.933 11.0617 104.707 11.115H104.907C105.253 11.115 105.453 11.0483 105.507 10.915C105.747 10.595 106.04 10.435 106.387 10.435C106.627 10.435 106.84 10.4883 107.027 10.595C107.453 10.755 107.733 11.155 107.867 11.795L107.667 18.635C107.667 22.3417 107.68 25.115 107.707 26.955C107.707 27.915 107.733 29.3817 107.787 31.355L107.827 33.555C107.827 33.7683 107.84 33.9683 107.867 34.155C107.893 34.3417 107.92 34.5283 107.947 34.715C108.48 34.7683 108.88 34.795 109.147 34.795C109.36 34.795 109.52 34.7817 109.627 34.755C110.213 34.675 110.733 34.8217 111.187 35.195C111.667 35.5417 111.907 35.995 111.907 36.555C111.907 37.275 111.853 38.355 111.747 39.795C111.747 40.1683 111.72 40.7017 111.667 41.395C111.613 41.955 111.373 42.3017 110.947 42.435ZM99.4267 36.075C100.92 35.9417 102.093 35.8217 102.947 35.715C103.827 35.5817 104.693 35.3817 105.547 35.115C105.813 31.8883 105.947 28.435 105.947 24.755C105.947 21.3417 105.813 17.595 105.547 13.515C104.853 13.4883 103.56 13.4217 101.667 13.315L101.627 15.195C101.413 19.3017 101.267 22.3683 101.187 24.395C101.08 27.435 100.56 30.4217 99.6267 33.355C99.5733 33.515 99.4533 33.915 99.2667 34.555C99.1067 35.1683 98.8534 35.7017 98.5067 36.155L99.4267 36.075Z" fill="#0F805D"/>
<path d="M122.221 37.875C121.608 37.875 121.155 37.7817 120.861 37.595C120.568 37.4083 120.421 37.0617 120.421 36.555C120.421 35.755 120.288 34.395 120.021 32.475L119.861 31.635L115.901 31.035C115.741 31.6483 115.515 32.8883 115.221 34.755C115.061 36.0617 114.808 36.9283 114.461 37.355C114.275 37.595 114.008 37.715 113.661 37.715C113.341 37.715 113.048 37.6217 112.781 37.435C112.515 37.2217 112.381 36.9683 112.381 36.675L112.461 36.475L112.501 36.315C114.261 29.4617 115.595 22.7017 116.501 16.035C116.501 15.9283 116.515 15.755 116.541 15.515C116.568 15.2483 116.595 14.875 116.621 14.395C116.701 13.4083 116.781 12.6217 116.861 12.035C116.968 11.4483 117.128 11.0083 117.341 10.715H118.701C119.075 10.715 119.395 10.8083 119.661 10.995C119.928 11.155 120.061 11.395 120.061 11.715C120.061 13.7417 120.341 16.755 120.901 20.755C121.435 24.8617 121.701 27.7417 121.701 29.395C121.701 29.555 121.768 29.9683 121.901 30.635C122.035 31.2483 122.101 31.6483 122.101 31.835C122.101 32.0217 122.235 32.8217 122.501 34.235C122.741 35.515 122.861 36.3417 122.861 36.715V36.755C122.861 37.3417 122.648 37.715 122.221 37.875ZM119.581 30.195C119.501 29.795 119.461 29.3017 119.461 28.715C119.461 26.315 119.248 23.2483 118.821 19.515L118.421 15.355C117.275 21.6217 116.488 26.355 116.061 29.555C116.461 29.8217 117.635 30.035 119.581 30.195Z" fill="#0F805D"/>
</g>
</symbol><symbol id="mail" viewBox="0 0 18 14">
<path d="M16.875 0H1.125C0.826631 0 0.540483 0.122916 0.329505 0.341709C0.118526 0.560501 0 0.857247 0 1.16667V12.8333C0 13.1428 0.118526 13.4395 0.329505 13.6583C0.540483 13.8771 0.826631 14 1.125 14H16.875C17.1734 14 17.4595 13.8771 17.6705 13.6583C17.8815 13.4395 18 13.1428 18 12.8333V1.16667C18 0.857247 17.8815 0.560501 17.6705 0.341709C17.4595 0.122916 17.1734 0 16.875 0V0ZM16.0087 12.8333H2.05875L5.99625 8.61L5.18625 7.79917L1.125 12.1567V2.05333L8.11688 9.26917C8.32766 9.48646 8.61279 9.60842 8.91 9.60842C9.20721 9.60842 9.49234 9.48646 9.70312 9.26917L16.875 1.8725V12.0808L12.735 7.7875L11.9419 8.61L16.0087 12.8333ZM1.86187 1.16667H15.9637L8.91 8.44083L1.86187 1.16667Z"/>
</symbol><symbol id="tm" viewBox="0 0 32 32">
<path d="M23.1561 7.8121C22.9836 7.66912 22.7756 7.57548 22.5542 7.54111C22.3328 7.50675 22.1062 7.53294 21.8985 7.6169L7.5649 13.4033C7.33327 13.4985 7.13608 13.6619 6.99949 13.8717C6.8629 14.0816 6.79337 14.3281 6.80014 14.5784C6.80691 14.8288 6.88966 15.0711 7.03739 15.2733C7.18513 15.4755 7.39087 15.628 7.6273 15.7105L10.7201 16.7841L12.3961 22.3249C12.3993 22.3361 12.4097 22.3433 12.4145 22.3537C12.4318 22.3979 12.457 22.4386 12.4889 22.4737C12.5374 22.5279 12.6 22.5675 12.6697 22.5881C12.6777 22.5913 12.6833 22.5985 12.6913 22.6001H12.6961L12.6985 22.6009C12.7604 22.6142 12.8247 22.6109 12.8849 22.5913C12.8913 22.5897 12.8977 22.5897 12.9049 22.5873C12.9627 22.567 13.015 22.5336 13.0577 22.4897C13.0625 22.4841 13.0705 22.4833 13.0753 22.4785L15.4857 19.8177L19.0033 22.5417C19.2169 22.7089 19.4801 22.7993 19.7513 22.7993C20.3385 22.7993 20.8449 22.3881 20.9657 21.8145L23.5753 9.0001C23.6196 8.78256 23.6039 8.55708 23.5301 8.34772C23.4563 8.13835 23.327 7.95376 23.1561 7.8121ZM13.2705 17.8361L12.7049 20.5857L11.5249 16.6833L17.3769 13.6353L13.3793 17.6337C13.3239 17.689 13.2861 17.7594 13.2705 17.8361ZM20.1817 21.6537C20.1667 21.7262 20.1333 21.7937 20.0846 21.8496C20.036 21.9055 19.9739 21.948 19.9041 21.9729C19.836 21.9991 19.7623 22.0071 19.6902 21.9962C19.6181 21.9852 19.5501 21.9557 19.4929 21.9105L15.6825 18.9593C15.6028 18.8978 15.5029 18.8686 15.4027 18.8775C15.3025 18.8864 15.2093 18.9327 15.1417 19.0073L13.4641 20.8561L14.0289 18.1145L19.7801 12.3625C19.8474 12.2949 19.8884 12.2055 19.8956 12.1104C19.9029 12.0152 19.8758 11.9207 19.8194 11.8437C19.7631 11.7667 19.681 11.7125 19.5881 11.6907C19.4952 11.6689 19.3976 11.681 19.3129 11.7249L11.0225 16.0433L7.8889 14.9537C7.80581 14.9263 7.73335 14.8736 7.68159 14.8031C7.62982 14.7325 7.60134 14.6476 7.6001 14.5601C7.59611 14.4718 7.61969 14.3845 7.66757 14.3103C7.71545 14.236 7.78526 14.1785 7.8673 14.1457L22.1985 8.3593C22.2719 8.3281 22.3526 8.318 22.4315 8.33016C22.5104 8.34231 22.5843 8.37623 22.6449 8.4281C22.7052 8.47689 22.7507 8.54148 22.7765 8.61466C22.8022 8.68783 22.807 8.76672 22.7905 8.8425L20.1817 21.6537Z"/>
<path fill-rule="evenodd" clip-rule="evenodd" d="M16 31C24.2843 31 31 24.2843 31 16C31 7.71573 24.2843 1 16 1C7.71573 1 1 7.71573 1 16C1 24.2843 7.71573 31 16 31ZM16 32C24.8366 32 32 24.8366 32 16C32 7.16344 24.8366 0 16 0C7.16344 0 0 7.16344 0 16C0 24.8366 7.16344 32 16 32Z"/>
</symbol><symbol id="vk" viewBox="0 0 32 32">
<path d="M7.3999 13.1755C7.3999 12.6726 7.74307 12.4014 8.4294 12.3619L11.0741 12.3767C11.2516 12.3767 11.37 12.4507 11.4291 12.5986C11.7013 13.3383 12.006 13.9768 12.3433 14.5143C12.6805 15.0518 13.1213 15.6706 13.6656 16.3708C13.713 16.4596 13.7899 16.5039 13.8964 16.5039C13.9792 16.5039 14.0443 16.4694 14.0916 16.4004L14.1449 16.2377L14.1626 13.6785C14.1626 13.501 14.1123 13.3826 14.0118 13.3235C13.9112 13.2643 13.7248 13.2199 13.4526 13.1903C13.2396 13.1608 13.1331 13.0523 13.1331 12.8649C13.1331 12.8254 13.1391 12.7959 13.1509 12.7761C13.3994 12.1351 14.1094 11.8146 15.2809 11.8146L16.2749 11.7998C16.7245 11.7998 17.0973 11.8935 17.3931 12.0809C17.689 12.2682 17.8369 12.5641 17.8369 12.9684V16.3264C17.9197 16.3757 17.9966 16.4004 18.0676 16.4004C18.2451 16.4004 18.399 16.3116 18.5291 16.1341C19.8308 14.6154 20.5349 13.5996 20.6414 13.0868C20.6414 13.0769 20.6532 13.0523 20.6769 13.0128C20.7597 12.8649 20.8958 12.7367 21.0851 12.6282C21.2745 12.5197 21.4401 12.4458 21.5821 12.4063C21.6295 12.3866 21.6827 12.3767 21.7419 12.3767H24.4931L24.6706 12.3915C24.9073 12.3915 25.0907 12.4852 25.2209 12.6726C25.2682 12.7318 25.3007 12.7959 25.3185 12.8649C25.3362 12.9339 25.3481 13.003 25.354 13.072C25.3599 13.141 25.3629 13.1805 25.3629 13.1903V13.2939C25.28 13.6982 25.07 14.1297 24.7327 14.5883C24.3955 15.0468 23.9665 15.5424 23.4459 16.075C22.9252 16.6075 22.5998 16.9576 22.4696 17.1252C22.3631 17.2436 22.3099 17.3521 22.3099 17.4507C22.3099 17.5296 22.3572 17.6183 22.4519 17.717L25.0434 20.4389C25.1854 20.5966 25.2564 20.7692 25.2564 20.9566C25.2564 21.1834 25.1499 21.3708 24.9369 21.5187C24.7239 21.6667 24.4695 21.7505 24.1736 21.7702L23.8719 21.785H21.1739C21.162 21.785 21.1384 21.7875 21.1029 21.7924C21.0674 21.7973 21.0437 21.7998 21.0319 21.7998C20.7715 21.7998 20.529 21.7061 20.3041 21.5187C20.2213 21.4398 19.6651 20.858 18.6356 19.7732C18.5765 19.7041 18.4936 19.64 18.3871 19.5809C18.3398 19.7387 18.2777 19.9655 18.2008 20.2613C18.1238 20.5572 18.0676 20.7692 18.0321 20.8974L17.9789 21.1489C17.8605 21.4941 17.612 21.7012 17.2334 21.7702L16.9849 21.785H15.2454C14.2632 21.785 13.284 21.4103 12.3078 20.6608C11.3315 19.9112 10.4529 18.9423 9.6719 17.7539C8.8909 16.5656 8.16315 15.1824 7.48865 13.6045C7.42949 13.4763 7.3999 13.3333 7.3999 13.1755ZM18.0676 17.0069C17.8191 17.0069 17.5943 16.9502 17.3931 16.8368C17.192 16.7234 17.0914 16.5681 17.0914 16.3708V12.9684C17.0914 12.7712 17.0322 12.6307 16.9139 12.5468C16.7956 12.463 16.5885 12.4211 16.2926 12.4211L15.2809 12.4507C14.7721 12.4507 14.3875 12.5247 14.1271 12.6726C14.6478 12.8797 14.9081 13.215 14.9081 13.6785V16.2821C14.8845 16.5286 14.7661 16.7332 14.5531 16.896C14.3401 17.0587 14.1035 17.14 13.8431 17.14C13.4881 17.14 13.216 16.997 13.0266 16.711C12.1036 15.5473 11.4173 14.4428 10.9676 13.3974L10.8079 13.0128L8.44715 12.998C8.29332 12.998 8.20753 13.0054 8.18978 13.0202C8.17203 13.035 8.16315 13.0769 8.16315 13.146C8.16315 13.2347 8.17498 13.3284 8.19865 13.427L8.5714 14.2554C9.5654 16.3955 10.6452 18.0819 11.8108 19.3146C12.9763 20.5473 14.1212 21.1637 15.2454 21.1637H17.0204C17.0914 21.1637 17.1446 21.1465 17.1801 21.1119C17.2156 21.0774 17.2452 21.0109 17.2689 20.9122L17.3044 20.7643L17.6416 19.4625C17.7363 19.285 17.8191 19.1667 17.8901 19.1075C18.0203 18.999 18.1741 18.9448 18.3516 18.9448C18.6356 18.9448 18.9255 19.0878 19.2214 19.3738L20.7301 20.9714C20.8248 21.0996 20.9254 21.1637 21.0319 21.1637H23.9606C24.3156 21.1637 24.4931 21.0897 24.4931 20.9418C24.4931 20.8925 24.4754 20.8432 24.4399 20.7939L21.8661 18.1164C21.665 17.9093 21.5644 17.6874 21.5644 17.4507C21.5644 17.214 21.659 16.9872 21.8484 16.7702C22.0022 16.573 22.301 16.2451 22.7447 15.7865C23.1885 15.3279 23.576 14.8989 23.9074 14.4995C24.2387 14.1001 24.4576 13.7377 24.5641 13.4122L24.6174 13.2199C24.6055 13.2002 24.5996 13.1681 24.5996 13.1238C24.5996 13.0794 24.5937 13.0424 24.5819 13.0128H21.7951C21.6176 13.072 21.4756 13.1608 21.3691 13.2791L21.2626 13.5602C20.9668 14.2406 20.1917 15.2909 18.9374 16.711C18.6889 16.9083 18.399 17.0069 18.0676 17.0069Z"/>
<path fill-rule="evenodd" clip-rule="evenodd" d="M16 31C24.2843 31 31 24.2843 31 16C31 7.71573 24.2843 1 16 1C7.71573 1 1 7.71573 1 16C1 24.2843 7.71573 31 16 31ZM16 32C24.8366 32 32 24.8366 32 16C32 7.16344 24.8366 0 16 0C7.16344 0 0 7.16344 0 16C0 24.8366 7.16344 32 16 32Z"/>
</symbol><symbol id="yt" viewBox="0 0 32 32">
<path d="M18.5649 15.7525L14.9649 13.3525C14.9198 13.3224 14.8674 13.3052 14.8132 13.3025C14.7591 13.2999 14.7052 13.312 14.6574 13.3375C14.6095 13.3624 14.5694 13.4002 14.5416 13.4465C14.5138 13.4928 14.4993 13.546 14.4999 13.6V18.4C14.4993 18.454 14.5138 18.5072 14.5416 18.5535C14.5694 18.5998 14.6095 18.6376 14.6574 18.6625C14.7016 18.6853 14.7502 18.6981 14.7999 18.7C14.8592 18.7011 14.9172 18.6826 14.9649 18.6475L18.5649 16.2475C18.6067 16.2211 18.6412 16.1846 18.6651 16.1413C18.689 16.0981 18.7015 16.0494 18.7015 16C18.7015 15.9506 18.689 15.9019 18.6651 15.8586C18.6412 15.8154 18.6067 15.7788 18.5649 15.7525ZM15.0999 17.8375V14.1625L17.8599 16L15.0999 17.8375ZM23.6874 11.71C23.6254 11.4813 23.5112 11.2702 23.3537 11.0932C23.1963 10.9162 22.9998 10.7781 22.7799 10.69C20.2449 9.71499 16.1724 9.72999 15.9999 9.72999C15.8274 9.72999 11.7549 9.71499 9.2199 10.69C8.99999 10.7781 8.80356 10.9162 8.64607 11.0932C8.48859 11.2702 8.37437 11.4813 8.3124 11.71C8.1249 12.4375 7.8999 13.7725 7.8999 16C7.8999 18.2275 8.1249 19.5625 8.3124 20.29C8.37437 20.5187 8.48859 20.7298 8.64607 20.9068C8.80356 21.0838 8.99999 21.2218 9.2199 21.31C11.7549 22.285 15.8274 22.27 15.9999 22.27H16.0524C16.5699 22.27 20.3724 22.24 22.7799 21.31C22.9998 21.2218 23.1963 21.0838 23.3537 20.9068C23.5112 20.7298 23.6254 20.5187 23.6874 20.29C23.8749 19.5625 24.0999 18.2275 24.0999 16C24.0999 13.7725 23.8749 12.4375 23.6874 11.71ZM23.1024 20.14C23.0664 20.2765 22.9987 20.4026 22.9049 20.5082C22.8111 20.6137 22.6938 20.6957 22.5624 20.7475C20.1324 21.685 16.0449 21.67 15.9999 21.67C15.9549 21.67 11.8674 21.685 9.4374 20.7475C9.30605 20.6957 9.18872 20.6137 9.09492 20.5082C9.00111 20.4026 8.93345 20.2765 8.8974 20.14C8.7174 19.4425 8.4999 18.16 8.4999 16C8.4999 13.84 8.7174 12.5575 8.8974 11.86C8.93345 11.7235 9.00111 11.5973 9.09492 11.4918C9.18872 11.3863 9.30605 11.3043 9.4374 11.2525C11.8674 10.315 15.9549 10.33 15.9999 10.33C16.0449 10.33 20.1324 10.315 22.5624 11.2525C22.6938 11.3043 22.8111 11.3863 22.9049 11.4918C22.9987 11.5973 23.0664 11.7235 23.1024 11.86C23.2824 12.5575 23.4999 13.84 23.4999 16C23.4999 18.16 23.2824 19.4425 23.1024 20.14Z"/>
<path fill-rule="evenodd" clip-rule="evenodd" d="M16 31C24.2843 31 31 24.2843 31 16C31 7.71573 24.2843 1 16 1C7.71573 1 1 7.71573 1 16C1 24.2843 7.71573 31 16 31ZM16 32C24.8366 32 32 24.8366 32 16C32 7.16344 24.8366 0 16 0C7.16344 0 0 7.16344 0 16C0 24.8366 7.16344 32 16 32Z"/>
</symbol></svg>