<svg  viewBox="0 0 15 20" xmlns="http://www.w3.org/2000/svg">
<path d="M3.88792 0.101671L3.02752 0.360871C2.26141 0.591906 1.57724 1.03698 1.05555 1.64372C0.533848 2.25045 0.196329 2.99359 0.0827165 3.78567C-0.273684 6.26727 0.523116 9.16887 2.44432 12.4965C4.36072 15.8157 6.47032 17.9541 8.79232 18.8901C9.53839 19.1908 10.3551 19.2709 11.1454 19.1209C11.9357 18.9709 12.6663 18.5972 13.2503 18.0441L13.9007 17.4273C14.3231 17.0276 14.5859 16.4881 14.6404 15.9092C14.6949 15.3302 14.5374 14.7512 14.1971 14.2797L12.5699 12.0237C12.3499 11.7191 12.0401 11.491 11.684 11.3714C11.3278 11.2517 10.9432 11.2465 10.5839 11.3565L8.12272 12.1089L8.05912 12.1209C7.78792 12.1605 7.16152 11.5737 6.38152 10.2225C5.56552 8.80887 5.39752 7.98207 5.62192 7.76847L6.87352 6.60087C7.33121 6.17423 7.64386 5.615 7.76761 5.00165C7.89135 4.3883 7.81999 3.7516 7.56352 3.18087L6.76912 1.41567C6.53024 0.884483 6.10635 0.458285 5.57647 0.216526C5.04659 -0.0252327 4.44687 -0.0660543 3.88912 0.101671H3.88792ZM5.67592 1.90767L6.46792 3.67287C6.62216 4.01515 6.66529 4.39715 6.59125 4.7652C6.51721 5.13326 6.32972 5.46886 6.05512 5.72487L4.79992 6.89367C3.99712 7.65447 4.26352 8.95287 5.34352 10.8225C6.35872 12.5817 7.28512 13.4505 8.28112 13.2993L8.42992 13.2681L10.9355 12.5037C11.0553 12.4669 11.1836 12.4685 11.3024 12.5083C11.4212 12.5481 11.5245 12.6241 11.5979 12.7257L13.2251 14.9817C13.3955 15.2174 13.4745 15.507 13.4473 15.7966C13.4202 16.0862 13.2888 16.3561 13.0775 16.5561L12.4259 17.1729C12.0087 17.5677 11.487 17.8345 10.9226 17.9415C10.3583 18.0485 9.77507 17.9912 9.24232 17.7765C7.20472 16.9557 5.27872 15.0033 3.48472 11.8965C1.68592 8.78247 0.957517 6.13407 1.27072 3.95607C1.35179 3.39019 1.59286 2.85925 1.96554 2.42577C2.33822 1.99228 2.82699 1.67431 3.37432 1.50927L4.23472 1.25007C4.51367 1.16625 4.81358 1.18675 5.07853 1.30774C5.34348 1.42874 5.55538 1.64197 5.67472 1.90767H5.67592Z"/>
</svg>
