<svg width="32" height="32" viewBox="0 0 32 32" fill="none" xmlns="http://www.w3.org/2000/svg">
<path d="M21.4868 9.97852C20.2469 7.87765 18.4865 6.13169 16.3756 4.90899L16 4.69177L15.6244 4.90899C13.4775 6.148 11.6948 7.93059 10.4557 10.0774C9.21651 12.2242 8.56463 14.6595 8.56561 17.1383C8.56561 17.2998 8.56843 17.4638 8.57391 17.6258C8.64854 19.8222 9.48849 21.6703 11.003 22.9704C12.1619 23.9653 13.6485 24.5727 15.2502 24.7176V27.3082H16.7502V15.3082H15.25V23.208C12.7157 22.9144 10.1934 21.1241 10.0729 17.5748C10.068 17.4297 10.0654 17.2829 10.0654 17.1383C10.0699 14.998 10.6165 12.8936 11.6543 11.0217C12.692 9.1498 14.1871 7.57129 16 6.43351C17.8128 7.57131 19.3079 9.14983 20.3456 11.0218C21.3833 12.8937 21.9299 14.998 21.9344 17.1383C21.9344 17.2829 21.9318 17.4297 21.9269 17.5749C21.8305 20.4142 20.1968 22.1277 18.2498 22.85V24.4375C19.2602 24.1511 20.1971 23.6507 20.997 22.9703C22.5115 21.6702 23.3514 19.8221 23.4261 17.6258C23.4316 17.4638 23.4344 17.2997 23.4344 17.1383C23.4357 14.6207 22.7633 12.1486 21.4868 9.97852Z" fill="black"/>
</svg>
