<svg viewBox="0 0 15 23" xmlns="http://www.w3.org/2000/svg">
<path d="M12.9212 5.28675C11.6813 3.18588 9.92091 1.43992 7.80994 0.217219L7.43438 0L7.05881 0.217219C4.91192 1.45623 3.1292 3.23882 1.89005 5.38563C0.650902 7.53245 -0.000978941 9.96776 1.10342e-06 12.4465C1.10342e-06 12.608 0.0028137 12.772 0.00829807 12.934C0.0829231 15.1304 0.922876 16.9785 2.43736 18.2786C3.5963 19.2735 5.08289 19.8809 6.68456 20.0258V22.6164H8.18456V10.6164H6.68438V18.5162C4.15013 18.2226 1.62783 16.4324 1.50731 12.883C1.50234 12.738 1.49981 12.5911 1.49981 12.4465C1.50428 10.3062 2.0509 8.20188 3.08866 6.32995C4.12642 4.45803 5.6215 2.87952 7.43438 1.74173C9.24721 2.87954 10.7423 4.45806 11.78 6.32998C12.8177 8.20191 13.3643 10.3062 13.3688 12.4465C13.3688 12.5911 13.3662 12.738 13.3613 12.8831C13.2649 15.7224 11.6312 17.4359 9.68419 18.1582V19.7457C10.6946 19.4593 11.6315 18.959 12.4314 18.2785C13.9459 16.9785 14.7858 15.1303 14.8605 12.934C14.8659 12.772 14.8688 12.608 14.8688 12.4465C14.8701 9.92888 14.1977 7.45679 12.9212 5.28675V5.28675Z"/>
</svg>
