<svg width="16" height="16" fill="none" xmlns="http://www.w3.org/2000/svg"><rect width="16" height="16" rx="2" fill="#fff"/><path fill="#fff" d="M0 0h16v16H0z"/><g clip-path="url(#clip0_20668_1709)"><path d="M12.311 8.903c0-1.001-.73-1.357-.81-1.394.003-.024.003-.048.003-.07.027-.16.083-.599-.012-1.01a1.122 1.122 0 00-.223-.447c-.553-1.187-1.987-1.56-3.674-1.56-1.702 0-3.146.38-3.69 1.592a1.117 1.117 0 00-.198.414c-.078.344-.05.706-.027.912.003.058.005.116.01.174-.11.05-.797.414-.797 1.389 0 1.059.688 1.36.688 1.36s.007 1.25.78 1.927c.771.673 1.58.678 1.58.678s.422.89 1.66.89c1.24 0 1.661-.89 1.661-.89s.839-.123 1.58-.678c.742-.556.723-1.927.723-1.927s.746-.299.746-1.36z" fill="#B22EC8"/><path d="M7.72 13.755s1.06-.742.992-2.445c.456-.475.596-1.113.184-1.886.7-.996.628-2.075-.21-2.894.344-.497.164-.928-.226-1.253 0 0 1.122.55 1.98-.238 0 0 1.806 1.3 1.052 2.465 0 0 1.995 1.348.07 2.759 0 0 .282 2.147-2.254 2.595.003 0-.666.757-1.587.897z" fill="#6A107A"/><path d="M7.716 4.661c.359.708 3.008 2.08 3.868-1.944-3.88-1.58-4.229 1.237-3.868 1.944z" fill="#0F805D"/><path d="M3.62 2.717c.863 4.026 3.51 2.654 3.868 1.944.36-.707.013-3.524-3.868-1.944z" fill="#0F805D"/><path d="M7.602 14c-1.093 0-1.621-.623-1.803-.9a2.971 2.971 0 01-1.595-.726c-.693-.606-.829-1.6-.856-1.966-.24-.165-.698-.594-.698-1.505 0-.9.514-1.35.793-1.527-.03-.223-.056-.62.029-1.001.138-.608.725-.967.749-.982a.243.243 0 01.332.083.243.243 0 01-.082.332c-.005.002-.437.269-.526.674-.102.455 0 .969 0 .976a.24.24 0 01-.146.272c-.022.012-.664.298-.664 1.173s.524 1.13.545 1.139a.245.245 0 01.143.218c0 .012.02 1.151.696 1.745.696.609 1.416.618 1.423.618.094 0 .18.054.218.139.015.028.38.75 1.44.75 1.059 0 1.425-.722 1.442-.753a.25.25 0 01.182-.136c.007 0 .79-.123 1.47-.632.633-.473.626-1.716.626-1.728a.238.238 0 01.153-.228c.022-.01.594-.264.594-1.135 0-.875-.643-1.16-.67-1.173a.242.242 0 01-.142-.271c0-.005.104-.521 0-.977-.092-.402-.521-.671-.526-.674a.242.242 0 11.25-.414c.024.014.61.373.748.981.088.381.059.778.03 1.001.278.177.794.628.794 1.527 0 .917-.494 1.346-.748 1.506-.018.395-.131 1.461-.817 1.975a4.183 4.183 0 01-1.573.703c-.17.269-.698.916-1.81.916zm1.665-1.72a.252.252 0 01-.116-.03c-.23-.126-.4-.293-.5-.485a1.867 1.867 0 01-1 .274h-.049c-.388 0-.746-.104-1.018-.283-.087.172-.23.324-.42.446a.24.24 0 11-.26-.407c.186-.12.292-.274.292-.432 0-.024.003-.048.01-.07a.242.242 0 01.444-.138c.16.24.545.4.955.4h.048c.398 0 .766-.148.938-.376a.243.243 0 01.34-.049.233.233 0 01.089.14.24.24 0 01.02.093c0 .172.125.342.346.465.116.066.16.214.095.33a.253.253 0 01-.214.121zM4.25 10.315a.24.24 0 01-.233-.177.245.245 0 01.168-.3c.37-.107.62-.42.62-.781v-.012a1.243 1.243 0 01-.167-.625c0-.134.109-.243.242-.243.134 0 .243.11.243.243 0 .448.392.814.877.814h.044c.484 0 .877-.366.877-.814 0-.134.11-.243.242-.243.134 0 .243.11.243.243 0 .717-.611 1.299-1.362 1.299H6c-.293 0-.565-.09-.785-.24-.143.385-.473.7-.897.821a.143.143 0 01-.068.015zm6.75-.02a.304.304 0 01-.08-.012 1.336 1.336 0 01-.824-.8c-.223.15-.494.24-.788.24h-.043c-.752 0-1.362-.584-1.362-1.299 0-.133.109-.242.242-.242s.242.11.242.242c0 .449.393.815.878.815h.043c.485 0 .878-.366.878-.815 0-.133.109-.242.242-.242s.243.11.243.242c0 .223-.061.434-.165.618v.017c0 .34.23.648.572.766a.243.243 0 01.15.308.24.24 0 01-.228.162zm-.196-2.532a1.37 1.37 0 01-1.362-1.375c0-.133.109-.242.242-.242s.243.11.243.242c0 .49.392.89.877.89.133 0 .242.109.242.242 0 .134-.109.243-.242.243zm-6.554 0a.243.243 0 01-.242-.243c0-.133.109-.242.242-.242.485 0 .877-.4.877-.89a.243.243 0 01.485 0A1.37 1.37 0 014.25 7.764zm3.42-.567h-.044c-.749 0-1.333-.609-1.357-.636a.241.241 0 11.351-.332c.01.01.47.483 1.004.483h.044c.533 0 .998-.478 1.003-.483a.241.241 0 11.351.332c-.021.027-.606.636-1.352.636zm1.64-1.484c-.731 0-1.407-.397-1.708-.783-.334.43-1.14.875-1.963.766-.764-.1-1.777-.688-2.257-2.928a.245.245 0 01.146-.276c2.184-.89 3.257-.41 3.774.15.123.134.223.281.3.437a1.87 1.87 0 01.3-.437c.517-.56 1.588-1.042 3.774-.15.11.044.17.16.146.276-.48 2.24-1.493 2.829-2.26 2.928a1.762 1.762 0 01-.251.017zm-1.284-1.03c.252.279.86.613 1.476.533.836-.109 1.457-.92 1.801-2.35-1.427-.544-2.477-.51-3.044.106-.332.361-.43.85-.41 1.207.36-.315.89-.606 1.585-.875a.24.24 0 01.313.14.24.24 0 01-.14.313c-.745.289-1.287.606-1.58.926zM3.901 2.865c.344 1.43.965 2.242 1.8 2.351.617.08 1.225-.254 1.477-.533-.293-.322-.836-.637-1.583-.926a.243.243 0 01.172-.453c.696.267 1.227.56 1.585.875.02-.356-.077-.846-.41-1.207-.564-.613-1.613-.65-3.041-.107z" fill="#000"/></g><defs><clipPath id="clip0_20668_1709"><path fill="#fff" transform="translate(2.65 2)" d="M0 0h9.903v12H0z"/></clipPath></defs></svg>