<svg viewBox="0 0 16 16" fill="none" xmlns="http://www.w3.org/2000/svg">

<g clip-path="url(#clip0_20668_1709)">
<path d="M12.3113 8.90284C12.3113 7.90183 11.5817 7.54554 11.5017 7.50919C11.5042 7.48495 11.5042 7.46071 11.5042 7.4389C11.5308 7.27893 11.5866 6.84023 11.4921 6.42819C11.4533 6.25368 11.366 6.10583 11.2691 5.98222C10.7165 4.79458 9.28159 4.42133 7.59466 4.42133C5.89318 4.42133 4.44863 4.80185 3.90571 6.01373C3.81845 6.1325 3.74332 6.26823 3.70696 6.42819C3.6294 6.77237 3.65606 7.13351 3.6803 7.33952C3.68272 7.39769 3.68515 7.45586 3.68999 7.51403C3.58092 7.56493 2.89258 7.9285 2.89258 8.90284C2.89258 9.96202 3.58092 10.2626 3.58092 10.2626C3.58092 10.2626 3.5882 11.5132 4.36137 12.1895C5.13213 12.8633 5.94166 12.8681 5.94166 12.8681C5.94166 12.8681 6.36339 13.7576 7.60193 13.7576C8.84047 13.7576 9.2622 12.8681 9.2622 12.8681C9.2622 12.8681 10.1008 12.7445 10.8425 12.1895C11.5842 11.6344 11.5648 10.2626 11.5648 10.2626C11.5648 10.2626 12.3113 9.96445 12.3113 8.90284Z" fill="#B22EC8"/>
<path d="M7.7207 13.7552C7.7207 13.7552 8.77988 13.0135 8.71202 11.3096C9.16768 10.8346 9.30826 10.1971 8.89622 9.42394C9.59669 8.42777 9.52398 7.3492 8.68536 6.52998C9.02953 6.03311 8.85017 5.60168 8.45995 5.2769C8.45995 5.2769 9.58215 5.82709 10.4402 5.03937C10.4402 5.03937 12.2458 6.3385 11.4921 7.50432C11.4921 7.50432 13.4868 8.85193 11.5624 10.2626C11.5624 10.2626 11.8435 12.41 9.30826 12.8584C9.31068 12.8584 8.64173 13.6146 7.7207 13.7552Z" fill="#6A107A"/>
<path d="M7.7161 4.66126C8.07482 5.369 10.724 6.74084 11.5844 2.71741C7.70398 1.13713 7.35496 3.95353 7.7161 4.66126Z" fill="#0F805D"/>
<path d="M3.62012 2.71741C4.48297 6.74327 7.12971 5.37142 7.48843 4.66126C7.84714 3.95353 7.50055 1.13713 3.62012 2.71741Z" fill="#0F805D"/>
<path d="M7.60212 14C6.509 14 5.98063 13.3771 5.79885 13.1008C5.51284 13.0693 4.84389 12.9336 4.20402 12.3737C3.51082 11.7677 3.37509 10.774 3.34843 10.408C3.10848 10.2432 2.65039 9.81418 2.65039 8.90285C2.65039 8.00364 3.16423 7.55282 3.44296 7.37588C3.41387 7.1529 3.38721 6.7554 3.47204 6.37487C3.6102 5.76651 4.19674 5.4078 4.22098 5.39325C4.3349 5.32539 4.48517 5.36175 4.55304 5.47566C4.6209 5.58958 4.58455 5.73985 4.47063 5.80772C4.46578 5.81014 4.03435 6.07675 3.94467 6.48152C3.84288 6.93719 3.94467 7.45102 3.94467 7.45829C3.96891 7.57221 3.90589 7.68612 3.79925 7.72975C3.77744 7.74187 3.13514 8.02787 3.13514 8.90285C3.13514 9.77782 3.65867 10.0323 3.68049 10.042C3.76532 10.0808 3.82349 10.168 3.82349 10.2602C3.82349 10.2723 3.84288 11.4114 4.5191 12.0053C5.21472 12.6136 5.93458 12.6233 5.94185 12.6233C6.03637 12.6233 6.1212 12.6766 6.15998 12.7615C6.17453 12.7905 6.54051 13.5128 7.59969 13.5128C8.65887 13.5128 9.02486 12.7905 9.04183 12.759C9.07576 12.6888 9.14605 12.6354 9.22361 12.6233C9.23088 12.6233 10.0138 12.4997 10.6948 11.9907C11.3274 11.5181 11.3202 10.2747 11.3202 10.2626C11.3177 10.1632 11.3783 10.0711 11.4729 10.0347C11.4947 10.025 12.0667 9.77055 12.0667 8.90043C12.0667 8.02545 11.4244 7.73945 11.3977 7.72733C11.2911 7.68128 11.2305 7.56736 11.2547 7.45587C11.2547 7.45102 11.3589 6.93476 11.2547 6.4791C11.1626 6.07675 10.7336 5.80772 10.7288 5.80529C10.6148 5.73743 10.5761 5.58715 10.6464 5.47324C10.7166 5.35932 10.8645 5.32054 10.9784 5.39083C11.0026 5.40537 11.5892 5.76409 11.7273 6.37245C11.8146 6.75298 11.7855 7.15048 11.7564 7.37346C12.0352 7.55039 12.5514 8.00121 12.5514 8.90043C12.5514 9.8166 12.057 10.2456 11.8025 10.4056C11.7855 10.8006 11.6716 11.8671 10.9857 12.3809C10.3628 12.8463 9.68412 13.0257 9.41266 13.0838C9.243 13.3529 8.71462 14 7.60212 14ZM9.26724 12.2791C9.22846 12.2791 9.18725 12.2694 9.1509 12.2501C8.92064 12.124 8.75098 11.9568 8.6516 11.7653C8.38014 11.9398 8.02627 12.0392 7.65059 12.0392C7.64332 12.0392 7.63363 12.0392 7.62636 12.0392C7.61908 12.0392 7.60939 12.0392 7.60212 12.0392C7.21432 12.0392 6.8556 11.935 6.58414 11.7556C6.49689 11.9277 6.35388 12.0804 6.16483 12.2016C6.05334 12.2743 5.90307 12.2404 5.83035 12.1289C5.75764 12.0149 5.79157 11.8671 5.90549 11.7944C6.0897 11.6756 6.19634 11.5205 6.19634 11.363C6.19634 11.3387 6.19876 11.3145 6.20604 11.2927C6.20604 11.2127 6.24239 11.1375 6.31268 11.0891C6.42417 11.0139 6.57445 11.043 6.64958 11.1545C6.80955 11.3945 7.19493 11.5544 7.60454 11.5544C7.61181 11.5544 7.62151 11.5544 7.62878 11.5544C7.63605 11.5544 7.64574 11.5544 7.65302 11.5544C8.05051 11.5544 8.41892 11.4066 8.59101 11.1788C8.67099 11.0721 8.82369 11.0503 8.93033 11.1303C8.97881 11.1666 9.00789 11.2151 9.02001 11.2709C9.03213 11.2999 9.0394 11.3315 9.0394 11.363C9.0394 11.535 9.16544 11.7047 9.386 11.8283C9.50234 11.8938 9.54597 12.0416 9.48053 12.1579C9.43447 12.2331 9.35207 12.2791 9.26724 12.2791ZM4.25007 10.3159C4.14342 10.3159 4.04647 10.2456 4.01739 10.139C3.98103 10.0105 4.05617 9.8772 4.18463 9.83842C4.55546 9.73177 4.80511 9.41911 4.80511 9.05797C4.80511 9.05312 4.80511 9.0507 4.80511 9.04585C4.69846 8.86165 4.63787 8.64835 4.63787 8.42052C4.63787 8.28722 4.74694 8.17815 4.88024 8.17815C5.01355 8.17815 5.12262 8.28722 5.12262 8.42052C5.12262 8.86892 5.51527 9.2349 6.00002 9.2349C6.00729 9.2349 6.01456 9.2349 6.02183 9.2349C6.0291 9.2349 6.03637 9.2349 6.04364 9.2349C6.52839 9.2349 6.92104 8.86892 6.92104 8.42052C6.92104 8.28722 7.03011 8.17815 7.16342 8.17815C7.29672 8.17815 7.40579 8.28722 7.40579 8.42052C7.40579 9.13795 6.79501 9.71965 6.04364 9.71965C6.03637 9.71965 6.0291 9.71965 6.02183 9.71965C6.01456 9.71965 6.00729 9.71965 6.00002 9.71965C5.70674 9.71965 5.43528 9.62998 5.21472 9.4797C5.07172 9.86508 4.74209 10.1802 4.31793 10.3014C4.29369 10.3135 4.27188 10.3159 4.25007 10.3159ZM11.0002 10.2965C10.9736 10.2965 10.9469 10.2917 10.9202 10.2844C10.5276 10.1487 10.2295 9.85054 10.0962 9.48455C9.87317 9.63482 9.60171 9.7245 9.30844 9.7245C9.30117 9.7245 9.2939 9.7245 9.28663 9.7245C9.27935 9.7245 9.27208 9.7245 9.26481 9.7245C8.51345 9.7245 7.90266 9.14038 7.90266 8.42537C7.90266 8.29206 8.01173 8.18299 8.14504 8.18299C8.27834 8.18299 8.38741 8.29206 8.38741 8.42537C8.38741 8.87376 8.78006 9.23975 9.26481 9.23975C9.27208 9.23975 9.27935 9.23975 9.28663 9.23975C9.2939 9.23975 9.30117 9.23975 9.30844 9.23975C9.79319 9.23975 10.1858 8.87376 10.1858 8.42537C10.1858 8.29206 10.2949 8.18299 10.4282 8.18299C10.5615 8.18299 10.6706 8.29206 10.6706 8.42537C10.6706 8.64836 10.61 8.85922 10.5058 9.04343C10.5058 9.04827 10.5058 9.05555 10.5058 9.06039C10.5058 9.39972 10.736 9.70754 11.0778 9.8263C11.2038 9.86993 11.2717 10.0081 11.2281 10.1341C11.1941 10.2335 11.102 10.2965 11.0002 10.2965ZM10.8039 7.76369C10.0525 7.76369 9.44175 7.14805 9.44175 6.38942C9.44175 6.25611 9.55081 6.14704 9.68412 6.14704C9.81743 6.14704 9.9265 6.25611 9.9265 6.38942C9.9265 6.87902 10.3191 7.27893 10.8039 7.27893C10.9372 7.27893 11.0463 7.388 11.0463 7.52131C11.0463 7.65462 10.9372 7.76369 10.8039 7.76369ZM4.25007 7.76369C4.11676 7.76369 4.00769 7.65462 4.00769 7.52131C4.00769 7.388 4.11676 7.27893 4.25007 7.27893C4.73482 7.27893 5.12747 6.87902 5.12747 6.38942C5.12747 6.25611 5.23653 6.14704 5.36984 6.14704C5.50315 6.14704 5.61222 6.25611 5.61222 6.38942C5.61222 7.14563 5.00143 7.76369 4.25007 7.76369ZM7.66998 7.19653C7.66271 7.19653 7.65544 7.19653 7.64817 7.19653C7.6409 7.19653 7.63363 7.19653 7.62636 7.19653C6.87742 7.19653 6.29329 6.58816 6.26905 6.5615C6.17695 6.46455 6.1818 6.31186 6.27875 6.21975C6.3757 6.12765 6.52839 6.1325 6.6205 6.22945C6.63019 6.23914 7.09071 6.71178 7.62393 6.71178C7.6312 6.71178 7.63847 6.71178 7.64575 6.71178C7.65302 6.71178 7.66029 6.71178 7.66756 6.71178C8.20078 6.71178 8.66614 6.2343 8.67099 6.22945C8.76309 6.1325 8.91579 6.12765 9.01274 6.21975C9.10969 6.31186 9.11454 6.46455 9.02244 6.5615C9.00062 6.58816 8.4165 7.19653 7.66998 7.19653ZM9.31086 5.71319C8.57889 5.71319 7.90266 5.31569 7.60212 4.93032C7.26764 5.35932 6.46295 5.80529 5.63888 5.69622C4.8754 5.59685 3.86227 5.00788 3.38236 2.76833C3.35813 2.65441 3.41872 2.53807 3.52779 2.49202C5.71159 1.6025 6.78531 2.08241 7.30157 2.64229C7.42518 2.7756 7.52456 2.92345 7.60212 3.07857C7.67968 2.92345 7.77905 2.7756 7.90266 2.64229C8.41892 2.08241 9.49022 1.60008 11.6764 2.49202C11.7855 2.53565 11.8461 2.65199 11.8219 2.76833C11.342 5.00788 10.3288 5.59685 9.56293 5.69622C9.4781 5.70834 9.39569 5.71319 9.31086 5.71319ZM8.02627 4.68309C8.27834 4.96183 8.88671 5.2963 9.50234 5.21632C10.3385 5.10725 10.959 4.29529 11.3032 2.86528C9.8756 2.32236 8.82611 2.35629 8.25895 2.97193C7.9269 3.33306 7.82995 3.82266 7.84934 4.17895C8.20806 3.86387 8.73886 3.57302 9.43447 3.30398C9.56051 3.2555 9.69866 3.31852 9.74714 3.44456C9.79561 3.57059 9.7326 3.70875 9.60656 3.75722C8.86247 4.04565 8.31955 4.36316 8.02627 4.68309ZM3.90105 2.86528C4.24522 4.29529 4.8657 5.10725 5.7019 5.21632C6.31753 5.2963 6.92589 4.96183 7.17796 4.68309C6.88469 4.36074 6.34177 4.04565 5.59525 3.75722C5.46921 3.70875 5.40862 3.56817 5.45467 3.44456C5.50315 3.31852 5.6413 3.25793 5.76734 3.30398C6.46295 3.57059 6.99376 3.86387 7.35247 4.17895C7.37186 3.82266 7.27491 3.33306 6.94286 2.97193C6.37812 2.35872 5.32864 2.32236 3.90105 2.86528Z" fill="black"/>
</g>
</svg>
